# xmcd
#
# Track frame offsets:
#	150
#	18356
#	37733
#	56063
#	74208
#	93327
#	106753
#
# Disc length: 1697 seconds
#
# Revision: 0
# Processed by: cddbd v1.5.2PL0 Copyright (c) Steve Scherf et al.
# Submitted via: EasyCDDAExtractor 12.0.4.1
#
DISCID=55069f07
DTITLE=pianismo - morph
DYEAR=2009
DGENRE=Pop
TTITLE0=แปลตรงตัว
TTITLE1=ทิ้งน้ำตาไว้ที่เดิม
TTITLE2=ความเหงา
TTITLE3=หัวใจที่หายไป
TTITLE4=เชื่อในความรัก
TTITLE5=โธ่
TTITLE6=ด้วยหัวใจ
EXTD=
EXTT0=
EXTT1=
EXTT2=
EXTT3=
EXTT4=
EXTT5=
EXTT6=
PLAYORDER=
